<svg width="62" height="1" viewBox="0 0 62 1" fill="none" xmlns="http://www.w3.org/2000/svg">
<g clip-path="url(#clip0_8330_3133)">
<path d="M28.4219 0.406657C30.7402 0.398323 32.9241 0.384851 34.9736 0.36624C37.023 0.347629 38.8877 0.324712 40.5676 0.29749V0.166657H5.2897V0.29749C6.96961 0.324712 8.8343 0.347629 10.8838 0.36624C12.9333 0.384851 15.1171 0.398323 17.4354 0.406657C18.0066 0.390545 18.7793 0.377768 19.7537 0.368323C20.728 0.358879 21.7863 0.354156 22.9287 0.354156C24.071 0.354156 25.1293 0.358879 26.1037 0.368323C27.078 0.377768 27.8508 0.390545 28.4219 0.406657ZM28.9259 0.48999C28.5227 0.511101 27.7668 0.528462 26.6581 0.542073C25.5493 0.555684 24.3062 0.56249 22.9287 0.56249C21.5511 0.56249 20.308 0.555684 19.1993 0.542073C18.0906 0.528462 17.3346 0.511101 16.9314 0.48999C12.6981 0.476101 8.8175 0.448045 5.2897 0.405823V0.833323H40.5676V0.405823C37.0398 0.448045 33.1593 0.476101 28.9259 0.48999ZM2.76985 0.0833232H43.0875C43.793 0.0833232 44.3894 0.087351 44.8766 0.0954065C45.3638 0.103462 45.6073 0.113323 45.6073 0.12499V0.87499C45.6073 0.886656 45.3638 0.896518 44.8766 0.904573C44.3894 0.912629 43.793 0.916656 43.0875 0.916656H2.76985C2.06429 0.916656 1.46793 0.912629 0.980757 0.904573C0.493586 0.896518 0.25 0.886656 0.25 0.87499V0.12499C0.25 0.113323 0.493586 0.103462 0.980757 0.0954065C1.46793 0.087351 2.06429 0.0833232 2.76985 0.0833232Z" fill="#64B496"/>
</g>
<defs>
<clipPath id="clip0_8330_3133">
<rect width="61.1515" height="1" fill="white" transform="matrix(1 0 0 -1 0.25 1)"/>
</clipPath>
</defs>
</svg>
